<svg xmlns="http://www.w3.org/2000/svg" id="Layer_1" data-name="Layer 1" viewBox="0 0 27.29 27.29"><defs><style>      .cls-1 {        fill: #fff;      }    </style></defs><path class="cls-1" d="m9.73,20.09c.6.5,1.6.49,2.19,0,.96-.8,2.47-.8,3.44,0,.59.49,1.6.49,2.19,0,.51-.43,1.19-.62,1.85-.59l-1.04-1.69c-.06.04-.13.06-.18.1-.96.8-2.48.8-3.44,0-.59-.49-1.6-.5-2.19,0-.48.4-1.1.6-1.72.6s-1.24-.2-1.72-.6c-.05-.04-.12-.06-.18-.1l-1.04,1.69c.66-.03,1.33.16,1.85.59h0Zm0,0"></path><path class="cls-1" d="m9.73,23.02c.6.5,1.6.49,2.19,0,.96-.8,2.47-.8,3.44,0,.59.49,1.6.49,2.19,0,.96-.8,2.48-.8,3.44,0,.21.18.49.27.77.32l-1.61-2.62c-.6-.35-1.44-.32-1.97.12-.96.8-2.48.8-3.44,0-.59-.49-1.6-.5-2.19,0-.48.4-1.1.6-1.72.6s-1.24-.2-1.72-.6c-.53-.44-1.37-.47-1.97-.12l-1.61,2.62c.28-.05.55-.14.77-.32.96-.8,2.48-.8,3.44,0h0Zm0,0"></path><path class="cls-1" d="m9.73,17.17c.6.5,1.6.49,2.19,0,.96-.8,2.47-.8,3.44,0,.59.49,1.6.49,2.19,0,.09-.08.19-.14.29-.2l-.92-1.49c-.41.14-.94.09-1.25-.17-1.1-.92-2.96-.92-4.06,0-.31.26-.84.31-1.25.17l-.92,1.49c.1.06.2.12.29.2h0Zm0,0"></path><path class="cls-1" d="m20.37,23.76c-.59-.49-1.6-.49-2.19,0-.96.8-2.48.8-3.44,0-.59-.49-1.6-.5-2.19,0-.48.4-1.1.6-1.72.6s-1.24-.2-1.72-.6c-.59-.49-1.6-.49-2.19,0-.56.46-1.3.65-2.01.58l-1.03,1.68c1.08.46,2.46.33,3.35-.42.4-.33,1.17-.33,1.57,0,1.1.92,2.96.92,4.06,0,.4-.33,1.17-.33,1.57,0,1.1.92,2.96.92,4.06,0,.4-.33,1.17-.33,1.57,0,.55.46,1.27.72,2.03.72.47,0,.92-.11,1.33-.29l-1.04-1.68c-.71.07-1.45-.11-2.01-.58h0Zm0,0"></path><path class="cls-1" d="m0,19.49v7.8h1.4c.34,0,.65-.18.83-.46l7.51-12.2v-2.92L0,19.49Zm0,0"></path><path class="cls-1" d="m26.31,2.92c.54,0,.97-.44.97-.97s-.44-.97-.97-.97c0-.54-.44-.97-.97-.97s-.97.44-.97.97h-1.95c0-.54-.44-.97-.97-.97s-.97.44-.97.97h-1.95c0-.54-.44-.97-.97-.97s-.97.44-.97.97h-1.95c0-.54-.44-.97-.97-.97s-.97.44-.97.97h-1.95c0-.54-.44-.97-.97-.97s-.97.44-.97.97h-1.95c0-.54-.44-.97-.97-.97s-.97.44-.97.97h-1.95c0-.54-.44-.97-.97-.97s-.97.44-.97.97c-.54,0-.97.44-.97.97s.44.97.97.97v.97h-.97v9.74h5.75l3.02-2.42v-.51c0-2.69,2.18-4.87,4.87-4.87s4.87,2.18,4.87,4.87v.51l3.02,2.42h5.75V3.9h-.97v-.97Zm-1.95,0v.97h-1.95v-.97h1.95Zm-3.9,0v.97h-1.95v-.97h1.95Zm-3.9,0v.97h-1.95v-.97h1.95Zm-3.9,0v.97h-1.95v-.97h1.95Zm-9.74,0h1.95v.97h-1.95v-.97Zm3.9.97v-.97h1.95v.97h-1.95Zm0,0"></path><path class="cls-1" d="m27.29,19.49v7.8h-1.4c-.34,0-.65-.18-.83-.46l-7.51-12.2v-2.92l9.74,7.8Zm0,0"></path></svg>