<svg xmlns="http://www.w3.org/2000/svg" id="Layer_1" data-name="Layer 1" viewBox="0 0 31.17 31.17"><defs><style>      .cls-1 {        fill: #fff;      }    </style></defs><path class="cls-1" d="m28.94,15.86c0,.46.37.83.83.83h.56c.46,0,.83-.37.83-.83v-4.17h-2.23v4.17Zm0,0"></path><path class="cls-1" d="m27.85,16.02c0-.05-.02-.1-.02-.16v-4.17h-4l.27,1.58c.05.3-.15.59-.45.64-.03,0-.06,0-.1,0-.27,0-.5-.2-.55-.46l-.3-1.76h-2.58l.09,1.64c0,.15-.04.29-.14.4-.1.11-.24.18-.38.18h-.03c-.3,0-.54-.23-.56-.53l-.09-1.7h-1.19v4.17c0,.97-.71,1.78-1.67,1.92v12.83c0,.31.25.56.56.56h13.64c.17,0,.33-.08.43-.21.11-.13.14-.31.11-.47l-3.03-14.23c-.02-.08-.01-.16,0-.24h0Zm-8.41,4.05l-.2-3.9c-.01-.2.09-.39.25-.5.17-.11.38-.12.56-.03.18.09.29.27.3.47l.2,3.9c0,.15-.04.29-.14.4-.1.11-.24.18-.39.18h-.03c-.3,0-.54-.23-.56-.53h0Zm1.07,9.99h-.03c-.3,0-.54-.23-.56-.53l-.28-5.57c0-.2.09-.39.25-.5.17-.11.38-.12.56-.03.18.09.29.27.3.47l.28,5.57c.02.31-.22.57-.53.58h0Zm4.2-9.46c-.27,0-.5-.2-.55-.46l-.67-3.9c-.04-.2.03-.4.18-.53.15-.13.37-.17.56-.1.19.07.33.24.35.44l.67,3.9c.03.16-.02.33-.12.45-.11.13-.26.2-.43.2h0Zm1.73,9.45s-.06,0-.09,0c-.27,0-.5-.2-.55-.46l-.96-5.57c-.05-.3.16-.58.46-.63.3-.05.59.15.64.45l.96,5.57c.05.3-.15.59-.45.64h0Zm0,0"></path><path class="cls-1" d="m16.7,15.86v-4.17h-2.23v4.17c0,.46.37.83.83.83h.56c.46,0,.83-.37.83-.83h0Zm0,0"></path><path class="cls-1" d="m13.36,15.86v-4.17h-1.19l-.09,1.7c-.02.3-.26.53-.56.53h-.03c-.15,0-.29-.07-.38-.18-.1-.11-.15-.25-.14-.4l.09-1.64h-2.58l-.3,1.76c-.05.27-.28.46-.55.46-.03,0-.06,0-.1,0-.3-.05-.51-.34-.45-.64l.27-1.58H3.34v4.17c0,.06-.01.1-.02.16.02.08.02.16,0,.24L.29,30.49c-.04.17,0,.34.1.47.11.13.27.21.44.21h13.64c.31,0,.56-.25.56-.56v-12.83c-.96-.14-1.67-.95-1.67-1.92h0Zm-7.97,13.73c-.05.27-.28.46-.55.46-.03,0-.06,0-.09,0-.3-.05-.51-.34-.45-.64l.96-5.57c.06-.3.34-.5.64-.45.3.05.5.33.46.63l-.96,5.57Zm1.63-9.46c-.03.2-.16.37-.35.44-.19.07-.4.04-.56-.1-.15-.13-.23-.34-.19-.54l.67-3.9c.03-.2.16-.37.35-.44.19-.07.4-.03.56.1.15.13.23.34.18.53l-.67,3.9Zm4.23,9.4c-.01.3-.26.53-.56.53h-.03c-.15,0-.29-.07-.38-.18-.1-.11-.15-.25-.14-.4l.28-5.57c.02-.31.28-.54.59-.53.15,0,.29.07.39.18.1.11.15.25.14.4l-.29,5.57Zm.49-9.46c-.02.3-.26.53-.56.53h-.03c-.15,0-.29-.07-.38-.18-.1-.11-.15-.25-.14-.4l.2-3.9c0-.2.13-.38.3-.47.18-.09.39-.08.56.03.17.11.26.3.25.5l-.2,3.9Zm0,0"></path><path class="cls-1" d="m21.64,2.23c.3-.05.59.15.64.45l.3,1.77h2.46l-.9-4.02c-.06-.25-.28-.43-.54-.43h-6.9c-.31,0-.56.25-.56.56v3.9h2.49l-.09-1.65c-.02-.31.22-.57.53-.58.31-.02.57.22.58.53l.09,1.71h1.71l-.27-1.58c-.05-.3.15-.59.45-.64h0Zm0,0"></path><path class="cls-1" d="m1.39,16.7c.46,0,.83-.37.83-.83v-4.17H0v4.17c0,.46.37.83.83.83h.56Zm0,0"></path><path class="cls-1" d="m30.61,5.57H.56c-.31,0-.56.25-.56.56v4.45h31.17v-4.45c0-.31-.25-.56-.56-.56h0ZM3.9,8.35H1.67c-.31,0-.56-.25-.56-.56s.25-.56.56-.56h2.23c.31,0,.56.25.56.56s-.25.56-.56.56h0Zm5.01,0h-2.23c-.31,0-.56-.25-.56-.56s.25-.56.56-.56h2.23c.31,0,.56.25.56.56s-.25.56-.56.56h0Zm5.01,0h-2.23c-.31,0-.56-.25-.56-.56s.25-.56.56-.56h2.23c.31,0,.56.25.56.56s-.25.56-.56.56h0Zm5.57,0h-2.23c-.31,0-.56-.25-.56-.56s.25-.56.56-.56h2.23c.31,0,.56.25.56.56s-.25.56-.56.56h0Zm5.01,0h-2.23c-.31,0-.56-.25-.56-.56s.25-.56.56-.56h2.23c.31,0,.56.25.56.56s-.25.56-.56.56h0Zm5.01,0h-2.23c-.31,0-.56-.25-.56-.56s.25-.56.56-.56h2.23c.31,0,.56.25.56.56s-.25.56-.56.56h0Zm0,0"></path><path class="cls-1" d="m15.03,4.45V.56c0-.31-.25-.56-.56-.56h-6.9c-.26,0-.48.18-.54.43l-.9,4.02h2.46l.3-1.77c.03-.2.16-.37.35-.44.19-.07.4-.04.56.1.15.13.23.34.18.54l-.27,1.58h1.71l.09-1.71c.01-.2.13-.38.3-.47.18-.09.39-.08.56.03.17.11.26.3.25.5l-.09,1.65h2.49Zm0,0"></path></svg>