<svg xmlns="http://www.w3.org/2000/svg" id="Layer_1" data-name="Layer 1" viewBox="0 0 37.4 32.14"><defs><style>      .cls-1 {        fill: #fff;      }    </style></defs><g><path class="cls-1" d="m20.06,9.69c.74,0,1.34.6,1.34,1.34s-.6,1.34-1.34,1.34-1.34-.6-1.34-1.34.6-1.34,1.34-1.34Z"></path><path class="cls-1" d="m17.97,22.03c-.08.27-.22.53-.4.75l-1.97,2.39c-.13.16-.32.26-.52.27-.2.02-.4-.05-.56-.18-.05-.04-.09-.08-.12-.13-.2-.28-.19-.66.03-.93,0,0,0,0,0,0l2-2.54c.15-.19.25-.41.28-.65l.24-1.65c.12.24.29.46.51.64l.9.78-.38,1.26Zm1.49-3.42l1.65,2.17c.17.23.3.48.37.76l.78,3c.05.2.02.41-.08.58-.11.18-.27.3-.47.35-.06.01-.12.02-.18.02-.34,0-.65-.23-.73-.57l-.8-3.04c-.05-.2-.16-.37-.32-.51l-1.96-1.69c-.49-.43-.71-1.09-.56-1.72l.7-3.04c.02-.08-.01-.17-.08-.21-.03-.02-.07-.04-.11-.04s-.08.01-.11.03l-1.11.75c-.23.16-.41.38-.52.64l-.88,2.22c-.09.23-.31.38-.56.38-.08,0-.15-.01-.22-.04-.15-.06-.27-.17-.33-.32-.06-.15-.07-.31,0-.46l.89-2.23c.19-.48.52-.89.94-1.18l1.85-1.26c.32-.22.7-.33,1.09-.33h.9c.33,0,.64.15.84.42.2.27.27.6.18.93l-1.17,4.2c-.02.06,0,.13.03.18Zm5.13-1.55c-.1.32-.45.49-.76.39,0,0,0,0-.01,0l-1.66-.43c-.49-.16-.91-.46-1.23-.86l-.33-.42.39-1.39s.02-.07.03-.11l.86,1.11c.17.22.41.39.68.47,0,0,0,0,0,0l1.65.48c.24.08.4.29.42.54,0,.08,0,.15-.03.23Z"></path></g><g><path class="cls-1" d="m37.21,30.08L19.88.67c-.53-.9-1.83-.9-2.36,0L.19,30.08c-.54.91.12,2.06,1.18,2.06h34.66c1.06,0,1.72-1.15,1.18-2.06Zm-34.46.04L18.7,3.05l15.95,27.07H2.75Z"></path><polygon class="cls-1" points="20.34 28.96 16.18 28.96 16.95 24.16 19.57 24.16 20.34 28.96"></polygon><polygon class="cls-1" points="12.5 28.96 8.34 28.96 11.2 24.16 13.81 24.16 12.5 28.96"></polygon><polygon class="cls-1" points="24.02 28.96 28.18 28.96 25.32 24.16 22.71 24.16 24.02 28.96"></polygon></g></svg>