<svg xmlns="http://www.w3.org/2000/svg" id="Layer_1" data-name="Layer 1" viewBox="0 0 33.43 34.39"><defs><style>      .cls-1 {        fill: #fff;      }    </style></defs><g><path class="cls-1" d="m24.06,32.72c4.91-2.33,8.51-7.16,9.37-12.5-3.97,3.42-7.33,7.65-9.37,12.5h0Z"></path><path class="cls-1" d="m31.93,20.38c-6.71,2.77-13.03,7.39-16.39,13.97,2.52.18,5.06-.21,7.38-1.13,1.9-4.94,5.14-9.27,9-12.84h0Z"></path><path class="cls-1" d="m31.12,19.79c-8.63,1.25-17.47,5.15-21.94,12.84,1.71.86,3.54,1.41,5.44,1.64,3.32-6.76,9.68-11.57,16.5-14.48h0Z"></path><path class="cls-1" d="m29.42,19.17c-7.55-.08-15.56,1.89-21.28,6.99,0,0,0,0,0,0-1.16,1.06-2.2,2.27-3.01,3.62,1,.93,2.1,1.75,3.3,2.41,4.27-7.48,12.79-11.51,21-13.03h0Z"></path><path class="cls-1" d="m10.17,23.49c-2.13-1.1-4.38-1.94-6.68-2.57-1.14-.3-2.31-.56-3.48-.75.54,3.37,2.11,6.51,4.49,8.99,1.44-2.29,3.46-4.16,5.68-5.68h0Z"></path><path class="cls-1" d="m14.39,21.19c-3.85-1.21-7.94-1.64-11.97-1.43,2.99.69,5.89,1.76,8.59,3.19,1.06-.66,2.22-1.25,3.38-1.76h0Z"></path></g><g><polygon class="cls-1" points="25.71 1.52 25.45 2.63 25.96 2.63 25.71 1.52"></polygon><rect class="cls-1" x="24.32" y="3.49" width="2.76" height=".44"></rect><rect class="cls-1" x="12.91" width="7.26" height=".71"></rect><polygon class="cls-1" points="10.18 4.13 4.9 4.13 4.9 4.17 10.18 5.18 10.18 4.13"></polygon><path class="cls-1" d="m4.39,4.95s-.31-.06-.32-.06v13.95c2.33-.01,4.65.2,6.93.61h0V6.21l-.48-.09s-6.15-1.18-6.15-1.18Zm1.69,11.41c-.01.57-.85.57-.87,0V7.72c.01-.57.85-.57.87,0v8.64Zm1.9,0c-.01.57-.85.57-.87,0v-8.28c0-.24.19-.43.43-.43s.43.19.43.43h0v8.28Zm1.88,0c-.01.57-.86.57-.87,0v-7.92c.01-.57.85-.57.87,0v7.92Z"></path><path class="cls-1" d="m11.88,19.63c1.28.28,2.49.63,3.73,1.06,1.82-.71,3.69-1.22,5.6-1.63V1.57h-9.33v18.06ZM18.2,3.21c0-.24.2-.43.43-.43h1.23c.24,0,.43.2.43.43v1.67c0,.24-.2.43-.43.43h-1.23c-.24,0-.43-.19-.43-.43v-1.67Zm0,3.29c0-.24.2-.43.43-.43h1.23c.24,0,.43.2.43.43v1.67c0,.24-.2.43-.43.43h-1.23c-.24,0-.43-.19-.43-.43v-1.67Zm0,3.29c0-.24.2-.43.43-.43h1.23c.24,0,.43.2.43.43v1.67c0,.24-.2.43-.43.43h-1.23c-.24,0-.43-.19-.43-.43v-1.67Zm0,3.29c0-.24.2-.43.43-.43h1.23c.24,0,.43.19.43.43v1.67c0,.24-.2.43-.43.43h-1.23c-.24,0-.43-.2-.43-.43v-1.67Zm-2.68-9.87c0-.24.19-.43.43-.43h1.23c.24,0,.43.2.43.43v1.67c0,.24-.2.43-.43.43h-1.23c-.24,0-.43-.19-.43-.43v-1.67Zm0,3.29c0-.24.19-.43.43-.43h1.23c.24,0,.43.2.43.43v1.67c0,.24-.2.43-.43.43h-1.23c-.24,0-.43-.19-.43-.43v-1.67Zm0,3.29c0-.24.19-.43.43-.43h1.23c.24,0,.43.2.43.43v1.67c0,.24-.2.43-.43.43h-1.23c-.24,0-.43-.19-.43-.43v-1.67Zm0,3.29c0-.24.19-.43.43-.43h1.23c.24,0,.43.19.43.43v1.67c0,.24-.2.43-.43.43h-1.23c-.24,0-.43-.2-.43-.43v-1.67Zm-2.69-9.87c0-.24.19-.43.43-.43h1.23c.24,0,.43.2.43.43v1.67c0,.24-.2.43-.43.43h-1.23c-.24,0-.43-.19-.43-.43v-1.67Zm0,3.29c0-.24.19-.43.43-.43h1.23c.24,0,.43.2.43.43v1.67c0,.24-.2.43-.43.43h-1.23c-.24,0-.43-.2-.43-.43v-1.67Zm0,3.29c0-.24.19-.43.43-.43h1.23c.24,0,.43.2.43.43v1.67c0,.24-.2.43-.43.43h-1.23c-.24,0-.43-.19-.43-.43v-1.67Zm0,3.29c0-.24.19-.43.43-.43h1.23c.24,0,.43.19.43.43v1.67c0,.24-.2.43-.43.43h-1.23c-.24,0-.43-.2-.43-.43v-1.67Z"></path><rect class="cls-1" x="16.38" y="3.64" width=".36" height=".81"></rect><rect class="cls-1" x="13.69" y="3.64" width=".36" height=".81"></rect><rect class="cls-1" x="13.69" y="6.93" width=".36" height=".81"></rect><rect class="cls-1" x="16.38" y="6.93" width=".36" height=".81"></rect><rect class="cls-1" x="19.07" y="6.93" width=".36" height=".81"></rect><rect class="cls-1" x="19.07" y="3.64" width=".36" height=".81"></rect><rect class="cls-1" x="19.07" y="13.5" width=".36" height=".81"></rect><rect class="cls-1" x="19.07" y="10.22" width=".36" height=".81"></rect><rect class="cls-1" x="16.38" y="10.22" width=".36" height=".81"></rect><rect class="cls-1" x="16.38" y="13.5" width=".36" height=".81"></rect><rect class="cls-1" x="13.69" y="13.5" width=".36" height=".81"></rect><rect class="cls-1" x="13.69" y="10.22" width=".36" height=".81"></rect><path class="cls-1" d="m28.04,4.8h-4.66l-1.3,1.1v12.99c2.4-.42,4.84-.63,7.28-.58V5.9l-1.31-1.1Zm-4.68,1.77h4.71c.56,0,.56.85,0,.87h-4.7c-.56-.01-.57-.86,0-.87Zm4.71,10.23h-4.71c-.56-.01-.57-.85,0-.87h4.71c.56,0,.56.85,0,.87Zm0-2.34h-4.71c-.56-.01-.57-.85,0-.87h4.71c.56.01.56.85,0,.87Zm-4.71-3.21h4.71c.56,0,.56.85,0,.87h-4.7c-.56-.01-.57-.85,0-.87Zm4.71-1.47h-4.71c-.56-.01-.57-.85,0-.87h4.71c.56.01.57.85,0,.87Z"></path></g></svg>