<svg xmlns="http://www.w3.org/2000/svg" id="Layer_1" data-name="Layer 1" viewBox="0 0 46.34 32.5"><defs><style>      .cls-1 {        fill: #fff;      }    </style></defs><path class="cls-1" d="m19.65,6.21c.29.21.66.21,1,.2,0,1.78,0,3.55,0,5.33.22-.02.44-.02.65-.02,0-1.77,0-3.54,0-5.32,1.49-.01,2.98,0,4.47,0,0,1.78,0,3.56,0,5.33.22,0,.44,0,.66,0-.02-1.77,0-3.54,0-5.32.28,0,.58,0,.84-.14.56-.26.88-.89.87-1.49.1-1.8-.99-3.58-2.61-4.34-.79-.37-1.68-.53-2.54-.42-1.1.11-2.16.63-2.89,1.46-.84.9-1.26,2.17-1.17,3.39.04.52.28,1.03.71,1.33Z"></path><path class="cls-1" d="m37.9,11.73c.33,0,.67,0,1-.01,0-.17,0-.35,0-.52.83,0,1.66-.01,2.49,0-.99-2-1.96-4.02-2.97-6.02-.95,2.02-1.95,4.01-2.89,6.03.79-.02,1.57,0,2.36-.02,0,.18,0,.36,0,.53Z"></path><path class="cls-1" d="m8.74,10.9c0,.28,0,.56,0,.84.34,0,.68,0,1.01-.02,0-.28,0-.56,0-.84.72.04,1.44.01,2.16.02.97,0,1.93,0,2.9,0,0,.28,0,.56,0,.84.34,0,.67-.01,1.01,0,0-.27,0-.55,0-.82,1.24,0,2.48-.01,3.71,0-.46-.38-.84-.84-1.2-1.31-.85-1.11-1.53-2.34-2.04-3.64-.94,1.17-2.28,2-3.7,2.46-.24.1-.47-.07-.69-.16-1.23-.63-2.38-1.46-3.24-2.55-1.1,2.02-2.62,3.81-4.44,5.21,1.51-.03,3.02,0,4.53-.02Z"></path><path class="cls-1" d="m31.21,11.73c.25,0,.5,0,.75,0,0-.17,0-.34,0-.51.71,0,1.43-.02,2.14.01-.82-1.84-1.63-3.69-2.45-5.53-.84,1.84-1.7,3.68-2.51,5.54.69-.02,1.38-.02,2.07-.03,0,.17,0,.35,0,.52Z"></path><path class="cls-1" d="m26.17,11.85c.09.11.17.23.26.34,1.65,1.98,3.33,3.93,4.98,5.91.09.04.2.02.29.03,1.44,0,2.87,0,4.31,0,2.94-.02,5.89,0,8.83,0,.26-.01.59,0,.76-.23.26-.31.04-.83-.36-.88-.44-.04-.89-.02-1.34-.03-3.24.02-6.48.02-9.71,0-.15-.29-.33-.56-.51-.83,2.64.02,5.27,0,7.91,0,.19,0,.42.02.57-.12.28-.19.27-.63.02-.84-.16-.15-.39-.12-.59-.13-2.84.01-5.68,0-8.52.01-.14-.23-.3-.43-.44-.65,3.92,0,7.83,0,11.75,0,.21,0,.46.02.63-.14.25-.19.19-.63-.08-.79-.16-.1-.37-.09-.55-.1-2.09.01-4.18,0-6.27,0,0-.19-.03-.38-.07-.57,1.37,0,2.74.02,4.11,0,.31.03.63-.25.56-.58-.04-.31-.37-.45-.65-.42-5.09,0-10.18,0-15.27.01-.21,0-.41,0-.62-.03Z"></path><path class="cls-1" d="m2.02,14.46c4.02,0,8.03,0,12.05,0-.18.22-.36.43-.54.65-1.91,0-3.82,0-5.73,0-.22-.02-.45.07-.55.28-.2.34.09.82.49.8,1.54.01,3.09,0,4.63,0-.21.28-.45.54-.66.82-.33.04-.66,0-.99,0-1.33,0-2.65.02-3.98,0-.27-.01-.6.07-.73.33-.16.31.06.74.41.78.59.05,1.19.02,1.78.03,2.1,0,4.21.02,6.31-.01.22-.18.38-.42.57-.62,1.66-1.88,3.31-3.77,4.99-5.64-5.26,0-10.52,0-15.78,0-.31-.02-.63.24-.59.56.02.28.31.46.57.44,1.39,0,2.79,0,4.18,0-.03.19-.05.38-.07.57-2.08,0-4.15,0-6.23,0-.27-.02-.57.16-.62.44-.06.29.2.57.49.57Z"></path><path class="cls-1" d="m21.15,11.88c-.13.01-.31-.03-.38.11-1.54,2.36-3.02,4.77-4.52,7.15-1.48,2.32-2.91,4.66-4.37,6.99-1.3,2.13-2.66,4.23-3.93,6.37.55-.01,1.1,0,1.65,0,3.76,0,7.52,0,11.28,0,.37-4.23.75-8.47,1.14-12.7.26-2.63.44-5.27.7-7.9-.52,0-1.04,0-1.56-.02Z"></path><path class="cls-1" d="m25.42,11.92c-.64-.05-1.3-.02-1.95-.03.29,4.12.61,8.23.93,12.35.22,2.75.4,5.51.62,8.26,4.23,0,8.47,0,12.7,0-.69-1.11-1.33-2.25-2.01-3.37-3.39-5.75-6.86-11.47-10.29-17.2Z"></path><path class="cls-1" d="m13.43,19.34c-3.4.03-6.8,0-10.21.01-.32-.01-.61.31-.51.63.07.28.37.41.64.4,3.07.01,6.14.03,9.21,0,.29-.34.59-.68.86-1.04Z"></path><path class="cls-1" d="m43.25,20.4c.3-.02.69.04.88-.25.22-.31-.04-.81-.42-.8-3.75,0-7.49.02-11.24-.01.28.36.55.73.89,1.05,3.3.03,6.6-.03,9.89.01Z"></path><path class="cls-1" d="m6.74,21.2c-.2,0-.42,0-.58.14-.26.2-.27.63-.02.84.16.14.39.14.59.15,1.42,0,2.84,0,4.26,0,.34-.36.61-.76.94-1.12-1.73,0-3.47,0-5.2,0Z"></path><path class="cls-1" d="m33.98,21.18c.25.34.53.66.79.98.06.08.13.17.24.16,1.33,0,2.66,0,3.98,0,.28.02.6-.09.71-.37.14-.34-.14-.76-.51-.76-1.74-.01-3.48.02-5.22-.02Z"></path><path class="cls-1" d="m8.34,25.46c.39-.34.66-.8,1.01-1.18-1.18.04-2.36.01-3.54.03-1.7,0-3.41,0-5.11-.01-.3-.01-.62.16-.68.48-.09.36.26.71.61.68,2.57,0,5.14,0,7.71,0Z"></path><path class="cls-1" d="m45.85,24.33c-.47-.04-.94-.01-1.4-.02-2.66,0-5.32.01-7.99-.02.27.38.57.74.87,1.1.06.11.19.06.29.07,2.65,0,5.31,0,7.96,0,.27.02.57-.06.7-.32.2-.32-.06-.77-.42-.81Z"></path><path class="cls-1" d="m3.41,29.09c-.26,0-.54.14-.63.4-.15.32.1.75.46.77.4.02.8,0,1.2,0,.34-.37.65-.77.98-1.15-.67-.02-1.34-.02-2.01-.02Z"></path></svg>