<svg xmlns="http://www.w3.org/2000/svg" id="Layer_1" data-name="Layer 1" viewBox="0 0 33.04 29.85"><defs><style>      .cls-1 {        fill: #fff;      }    </style></defs><path class="cls-1" d="m28.13,14.74c0,.08.02.15.02.22,0,.53-.01,1.06,0,1.59,0,.2-.07.23-.25.23-.86-.01-1.72-.01-2.58-.01-.01,0-.02,0-.05.02.01.04.01.08.03.12.28.54.58,1.06.83,1.62.13.3.32.34.61.34,1.3-.01,2.6,0,3.9-.02.2,0,.23.06.23.25-.01.53-.02,1.06,0,1.59,0,.18-.04.23-.23.23-1.01,0-2.03,0-3.04,0-.07,0-.14.01-.23.02.06.12.11.22.15.31.37.73.74,1.46,1.1,2.2.08.16.17.21.34.21,1.29,0,2.58,0,3.88-.01.15,0,.21.03.2.19,0,.55,0,1.1,0,1.65,0,.18-.06.22-.23.22-.88,0-1.76-.01-2.64-.01-.12,0-.24,0-.41,0,.72,1.41,1.42,2.77,2.13,4.15-.08.01-.15.03-.23.03-1.14,0-2.29,0-3.43,0-.22,0-.32-.08-.4-.29-.5-1.25-1.01-2.5-1.51-3.75-.05-.12-.11-.15-.23-.15-6.12,0-12.24,0-18.36.01-.28,0-.56,0-.83-.01-.11,0-.16.03-.2.14-.52,1.29-1.04,2.58-1.56,3.88-.05.12-.11.17-.24.17-1.21,0-2.42,0-3.63,0-.04,0-.09-.01-.16-.02.71-1.38,1.41-2.74,2.14-4.14-.1,0-.16-.01-.22-.01-.94,0-1.87,0-2.81,0-.18,0-.21-.05-.21-.22,0-.54,0-1.07-.01-1.61,0-.17.05-.22.22-.22,1.28,0,2.56,0,3.84.02.19,0,.28-.05.37-.23.39-.81.81-1.61,1.21-2.42,0-.01,0-.02,0-.06-.11-.01-.22-.03-.34-.03-.98,0-1.95-.01-2.93,0-.16,0-.21-.04-.2-.21.01-.54.01-1.08,0-1.63,0-.17.05-.2.19-.2.22,0,.44-.01.66-.01,1.15,0,2.3,0,3.45.02.14,0,.22-.05.28-.18.29-.57.59-1.13.89-1.7.03-.06.06-.12.11-.23-.32,0-.59,0-.87,0-.61,0-1.23,0-1.84.02-.16,0-.22-.02-.22-.21.02-.55,0-1.11,0-1.67,0-.12.02-.17.16-.16,1.22,0,2.44,0,3.66,0,.06,0,.16-.04.19-.09.34-.64.67-1.29,1.01-1.94,0,0,0-.02,0-.06h-2.27v-2.02s.08-.02.12-.02c1.02,0,2.04,0,3.06,0,.13,0,.2-.04.26-.16.2-.43.41-.84.65-1.31-.11,0-.17,0-.24,0-.52,0-1.05,0-1.57,0-.11,0-.17-.02-.17-.15,0-.62,0-1.24,0-1.87.08,0,.14-.01.2-.01.88,0,1.76,0,2.64,0,.14,0,.22-.05.28-.18.28-.59.58-1.17.87-1.75.03-.05.1-.12.15-.13.42-.01.85,0,1.32,0-.28.69-.55,1.35-.83,2.03h4.42c-.28-.68-.55-1.34-.83-2,.04-.02.07-.04.1-.04.39,0,.78,0,1.16,0,.12,0,.18.05.24.17.28.59.58,1.18.89,1.76.04.07.17.12.26.12.39.01.79,0,1.18,0,.54,0,1.08,0,1.64,0v2.02h-2c.08.18.14.33.22.47.16.3.31.61.48.9.03.05.13.09.2.09,1,0,2,.01,3,0,.16,0,.2.05.2.2,0,.55,0,1.1,0,1.65,0,.14-.04.19-.19.19-.62,0-1.24,0-1.86,0-.09,0-.17.01-.28.02.34.66.68,1.29,1,1.93.07.13.16.14.29.14,1.09,0,2.17,0,3.26,0,.14,0,.28,0,.44,0Zm-2.75,8.87c-.33-.84-.65-1.63-.97-2.43-.12-.29-.11-.29-.43-.29-5.03,0-10.06,0-15.08,0-.15,0-.23.05-.29.19-.29.75-.59,1.5-.89,2.25-.03.09-.07.17-.11.28h17.76Zm-1.91-4.77c-.27-.68-.53-1.33-.79-1.98-.02-.04-.1-.07-.15-.08-.21-.01-.43-.02-.64-.02-3.61,0-7.22,0-10.84,0-.18,0-.36,0-.54.03-.07.01-.16.08-.19.15-.14.32-.27.66-.4.99-.12.3-.24.6-.37.92h13.92Zm-1.65-4.11c-.03-.08-.04-.13-.06-.17-.23-.58-.48-1.16-.7-1.74-.05-.14-.12-.18-.27-.18-2.8,0-5.59,0-8.39,0-.08,0-.17,0-.25.01-.05.01-.11.06-.13.11-.25.62-.49,1.25-.74,1.87-.01.03-.01.06-.02.1h10.56Zm-1.68-4.14c-.17-.42-.34-.8-.47-1.19-.07-.21-.18-.26-.39-.26-1.53,0-3.05,0-4.58,0-.35,0-.7,0-1.05,0-.06,0-.16.03-.18.07-.2.45-.38.9-.58,1.37h7.25Z"></path><path class="cls-1" d="m4.89,1.08c-.48.59-.93,1.15-1.4,1.69-.17.2-.23.4-.22.65,0,1.52,0,3.05.01,4.57,0,.19-.05.25-.24.24-.76,0-1.52,0-2.3,0,0-.08-.02-.16-.02-.23,0-2.13,0-4.26,0-6.39,0-.17,0-.35.03-.52C.84.53,1.32.09,1.86,0c.5-.07,1.09.27,1.33.76.01.03.03.06.03.09,0,.18.11.19.24.19.38,0,.76,0,1.14,0,.08,0,.16.01.29.02Z"></path><path class="cls-1" d="m27.31,3.01c.1-.11.18-.2.25-.28.43-.52.85-1.05,1.28-1.58.03-.04.09-.1.13-.1.55,0,1.1,0,1.72,0-.13.15-.22.24-.3.35-.4.49-.8.98-1.2,1.47-.1.12-.2.17-.36.17-.43-.01-.86,0-1.3,0-.06,0-.12,0-.22-.02Z"></path><path class="cls-1" d="m23.3,1.09c-.47.57-.93,1.11-1.36,1.67-.17.22-.35.3-.62.28-.4-.02-.8,0-1.2-.01-.04,0-.07-.01-.14-.02.1-.12.19-.22.27-.32.41-.49.81-.99,1.22-1.48.07-.08.2-.15.31-.15.46-.01.93,0,1.4,0,.04,0,.07.01.13.03Z"></path><path class="cls-1" d="m12.61,3.01c.53-.65,1.03-1.26,1.54-1.88.03-.04.08-.07.13-.07.55,0,1.09,0,1.69,0-.14.16-.24.28-.34.4-.39.48-.78.96-1.18,1.44-.06.08-.19.13-.29.13-.45.01-.9,0-1.36,0-.06,0-.11,0-.19-.02Z"></path><path class="cls-1" d="m8.91,3c.12-.14.24-.27.34-.4.39-.47.77-.95,1.16-1.42.05-.05.12-.12.18-.12.53,0,1.07,0,1.62,0-.02.05-.02.09-.03.11-.49.59-.98,1.18-1.47,1.77-.04.05-.13.1-.19.1-.51,0-1.02,0-1.53,0-.02,0-.05-.01-.09-.03Z"></path><path class="cls-1" d="m5.26,2.99c.52-.63,1.03-1.25,1.54-1.86.04-.04.11-.08.16-.08.5,0,1.01,0,1.51,0,.03,0,.06.02.1.04-.14.17-.28.32-.4.48-.37.45-.73.9-1.1,1.35-.04.05-.13.1-.19.1-.52,0-1.03,0-1.55,0-.02,0-.03-.02-.07-.03Z"></path><path class="cls-1" d="m26.94,1.1c-.5.62-.99,1.24-1.49,1.85-.03.04-.1.07-.15.07-.52,0-1.03,0-1.55,0-.02,0-.04-.02-.07-.03.45-.56.92-1.09,1.34-1.66.18-.24.37-.31.65-.3.42.02.83,0,1.25,0,0,.02,0,.04.01.06Z"></path><path class="cls-1" d="m19.59,1.1c-.27.34-.54.66-.81.99-.22.27-.44.54-.67.8-.06.07-.18.13-.27.13-.46.01-.92,0-1.37,0-.04,0-.08,0-.16-.02.1-.12.19-.21.27-.31.42-.52.84-1.03,1.26-1.55.04-.05.11-.1.17-.1.5,0,1.01,0,1.51,0,.02,0,.05.02.08.03Z"></path><path class="cls-1" d="m31.64,2.34c0,.24,0,.42,0,.6,0,.03-.05.08-.08.08-.16,0-.33,0-.49,0,0-.02-.02-.03-.02-.05.19-.2.38-.4.6-.64Z"></path></svg>